.
..............................Site Info...........................

 -   http://www.scenetime.com  *_*    

Scenetime .Always on time . friendly online private torrent community ..

     We care to share . Join us on  http://www.scenetime.com 

    Be the first to get new release at  http://www.scenetime.com

        Seed back for speed


...................................NFO:.................................................[IMG]http://img401.imageshack.us/img401/2169/totalrecall2012poster.jpg[/IMG]


[color=blue][size=4][b]Total.Recall.2012.REAL.R5.DVDRip.XVID.AC3.HQ.Hive-CM8[/b][/size][/color]


[b]Thx Hive

CM8 Doing It Right The First Time :D


Source: Russian DVDR Vspomnit.vse.2012.DVD_D

Encode:
finally the real dvd showed up...
so far only the avi and custom reencoded to ntsc disc was out
time for some quality rip

Dvd quality was nice, just a bit too dark and colours low
added sharpness, brightness, rgb and denoise
got very nice
enjoy

Video: 720x304 @bitrate 1700 2pass
Audio: English AC3 5.1 @384 (studio from the dvdr)
Sample: Yes, included[/b]
 
http://www.imdb.com/title/tt1386703/


General
Complete name                  : Total.Recall.2012.REAL.R5.DVDRip.XVID.AC3.HQ.Hive-CM8.avi
Format                         : AVI
Format/Info                    : Audio Video Interleave
File size                      : 1.71 GiB
Duration                       : 1h 53mn
Overall bit rate               : 2 156 Kbps
Writing application            : Nandub v1.0rc2
Writing library                : Nandub build 1853/release

Video
ID                             : 0
Format                         : MPEG-4 Visual
Format profile                 : Advanced Simple@L5
Format settings, BVOP          : 2
Format settings, QPel          : Yes
Format settings, GMC           : No warppoints
Format settings, Matrix        : Default (H.263)
Muxing mode                    : Packed bitstream
Codec ID                       : XVID
Codec ID/Hint                  : XviD
Duration                       : 1h 53mn
Bit rate                       : 1 699 Kbps
Width                          : 720 pixels
Height                         : 304 pixels
Display aspect ratio           : 2.35:1
Frame rate                     : 25.000 fps
Color space                    : YUV
Chroma subsampling             : 4:2:0
Bit depth                      : 8 bits
Scan type                      : Progressive
Compression mode               : Lossy
Bits/(Pixel*Frame)             : 0.310
Stream size                    : 1.35 GiB (79%)
Writing library                : XviD 1.2.1 (UTC 2008-12-04)

Audio
ID                             : 1
Format                         : AC-3
Format/Info                    : Audio Coding 3
Mode extension                 : CM (complete main)
Format settings, Endianness    : Big
Codec ID                       : 2000
Duration                       : 1h 53mn
Bit rate mode                  : Constant
Bit rate                       : 448 Kbps
Channel(s)                     : 6 channels
Channel positions              : Front: L C R, Side: L R, LFE
Sampling rate                  : 48.0 KHz
Bit depth                      : 16 bits
Compression mode               : Lossy
Stream size                    : 364 MiB (21%)
Alignment                      : Split accross interleaves
Interleave, duration           : 40 ms (1.00 video frame)
Interleave, preload duration   : 500 ms


Plot:
A factory worker, Douglas Quaid, begins to suspect that he is a spy
after a visit to Rekall, a company that provides its clients with
implanted fake memories of a life they would like to have led,
goes wrong and he finds himself on the run.


Cast:
Colin Farrell    ...    Douglas Quaid / Hauser
Kate Beckinsale  ...    Lori Quaid
Jessica Biel     ...    Melina
Bryan Cranston   ...    Cohaagen


[img]http://img560.imageshack.us/img560/6236/trtrtrtrtr.png[/img]
[img]http://img23.imageshack.us/img23/9314/trtrtrtrtrtr.png[/img]
[img]http://img9.imageshack.us/img9/9093/trtrtrtrtrtrtr.png[/img]
[img]http://img832.imageshack.us/img832/1081/50361110.png[/img]
[img]http://img401.imageshack.us/img401/8739/trtr.png[/img]
[img]http://img12.imageshack.us/img12/4489/trtrtro.png[/img]
[img]http://img341.imageshack.us/img341/1341/trtrtrtr.png[/img]



Greetz

ViSiON,SPK,SceneLovers,PRESTiGE,SANTi,3LT0N,YanKeeS,COPYxRIGHT,THC,T0XiC
D2U,LKRG,ADTRG,Feel-Free,KoDeKinG,FLAWL3SS,WBZ,BHRG,26K,NOVA,MAGNET
Unevano,BigVik,Rapeseed,SAFC,goldadvance,KaN1vE,Pinnz,Wayne,TED
SeeN,jtr,Limey,ICONiK,4PlayHD,THEDEN-RG,eXceSs,AKS74u,HiGH
Mr Hive,and most P2P groups
Great Work Guys :D

LOOKING FOR ANYTHING YOU WANT TO LOOK AND SOUND BETTER

CM8@hushmail.com